<?xml version="1.0" standalone="no"?>
<!DOCTYPE svg PUBLIC "-//W3C//DTD SVG 20010904//EN"
 "http://www.w3.org/TR/2001/REC-SVG-20010904/DTD/svg10.dtd">
<svg version="1.0" xmlns="http://www.w3.org/2000/svg"
 width="587.000000pt" height="587.000000pt" viewBox="0 0 587.000000 587.000000"
 preserveAspectRatio="xMidYMid meet">
<metadata>
Created by potrace 1.11, written by Peter Selinger 2001-2013
</metadata>
<g transform="translate(0.000000,587.000000) scale(0.100000,-0.100000)"
fill="#000000" stroke="none">
<path d="M1506 5411 c-25 -5 -32 -15 -48 -61 -10 -30 -28 -100 -39 -155 -28
-132 -23 -334 10 -438 l22 -67 -48 -59 c-92 -114 -163 -254 -205 -407 -19 -70
-22 -104 -22 -304 0 -238 12 -349 54 -481 11 -35 20 -70 20 -77 0 -10 -24 -11
-112 -6 -135 7 -540 -10 -728 -31 -142 -17 -382 -54 -389 -61 -15 -14 23 -13
136 5 300 48 724 75 979 64 l130 -6 21 -51 21 -51 -47 -2 c-410 -22 -739 -65
-1060 -139 -168 -39 -174 -41 -166 -54 3 -5 28 -2 55 6 117 35 469 102 654
124 135 17 432 40 511 40 l70 0 20 -37 c11 -21 45 -69 76 -108 184 -232 511
-387 941 -446 l87 -12 -52 -51 c-54 -53 -115 -157 -138 -234 -15 -51 -36 -64
-146 -93 -166 -42 -321 -17 -435 69 -58 43 -87 77 -195 230 -43 59 -135 135
-203 165 -86 38 -238 33 -254 -9 -9 -23 38 -67 114 -109 101 -55 164 -124 255
-277 99 -167 169 -239 286 -297 91 -45 202 -71 299 -71 57 0 197 16 233 26 16
5 17 -13 17 -292 0 -193 -4 -310 -11 -335 -17 -56 -63 -106 -128 -139 -70 -35
-85 -52 -77 -84 8 -31 52 -41 142 -32 160 16 269 79 320 183 l29 58 5 390 5
390 27 57 c15 32 32 58 37 58 8 0 11 -174 11 -560 0 -536 -1 -563 -19 -599
-11 -21 -32 -46 -48 -56 -60 -39 -72 -92 -27 -121 22 -15 34 -16 85 -6 126 23
221 87 275 184 l29 53 3 582 c2 486 5 583 17 593 18 15 55 3 56 -18 1 -9 2
-271 3 -582 l1 -565 28 -57 c43 -88 141 -157 268 -188 38 -10 52 -9 82 4 35
14 43 28 37 66 -1 8 -21 34 -45 57 -24 23 -49 59 -56 80 -10 29 -14 174 -16
588 l-3 550 25 -28 c53 -59 58 -100 64 -507 7 -421 6 -419 83 -497 49 -50 130
-88 218 -102 98 -16 144 -14 171 8 23 19 23 21 9 47 -8 15 -24 32 -35 38 -85
45 -125 88 -155 166 -11 27 -16 138 -20 485 -6 428 -7 453 -28 516 -27 81 -88
175 -147 227 l-44 38 102 13 c201 24 451 92 581 158 169 85 299 204 381 347
l50 87 152 -5 c343 -14 781 -75 1058 -150 89 -24 108 -25 89 -6 -12 12 -216
60 -400 94 -224 42 -640 86 -816 86 -38 0 -68 4 -68 8 0 5 7 29 15 54 l16 45
142 6 c300 13 739 -19 1090 -79 23 -4 37 -3 37 4 0 12 -74 26 -315 57 -233 30
-633 50 -814 40 l-134 -7 7 24 c45 165 70 569 46 743 -31 213 -125 419 -262
570 l-46 51 15 54 c11 38 16 101 16 200 0 152 -12 235 -55 357 -19 55 -24 62
-52 66 -126 18 -383 -73 -620 -221 l-79 -49 -56 13 c-338 78 -814 75 -1161 -8
l-85 -20 -106 65 c-126 77 -202 116 -301 156 -122 48 -261 75 -322 62z m1019
-1326 c287 -19 495 -19 779 1 436 30 574 -1 730 -167 136 -144 182 -271 173
-474 -10 -223 -64 -364 -186 -486 -117 -117 -250 -174 -509 -215 -131 -21
-742 -31 -937 -15 -485 40 -749 163 -878 409 -79 150 -106 402 -58 542 61 176
212 335 361 381 132 40 222 44 525 24z m-1235 -1450 c13 -16 6 -35 -14 -35
-18 0 -39 27 -31 40 9 14 31 12 45 -5z m98 -67 c18 -18 15 -48 -6 -48 -10 0
-23 5 -30 12 -18 18 -15 48 6 48 10 0 23 -5 30 -12z m94 -105 c23 -21 24 -63
1 -63 -19 0 -53 28 -53 45 0 11 20 35 29 35 2 0 13 -7 23 -17z m108 -133 c29
-29 26 -60 -5 -60 -33 0 -63 43 -45 65 17 20 26 19 50 -5z m131 -110 c11 -6
19 -21 19 -36 0 -22 -4 -25 -31 -22 -35 3 -56 26 -46 52 7 18 30 21 58 6z
m499 -24 c0 -43 -27 -59 -50 -31 -10 12 -10 18 0 30 16 19 50 20 50 1z m-319
-42 c25 -31 -40 -61 -69 -32 -7 7 -12 20 -12 29 0 29 57 31 81 3z m174 -14 c0
-21 -5 -26 -31 -28 -19 -2 -36 3 -44 12 -19 24 5 48 44 44 26 -2 31 -7 31 -28z"/>
<path d="M2190 3723 c-39 -16 -73 -49 -98 -96 -23 -46 -27 -63 -27 -147 0 -84
3 -102 28 -152 37 -74 76 -103 142 -103 66 0 105 29 142 103 24 50 28 69 28
147 0 78 -4 97 -28 147 -16 32 -42 67 -59 79 -30 22 -100 34 -128 22z m8 -96
c6 -5 12 -22 12 -38 0 -50 -67 -67 -95 -25 -13 19 -14 29 -6 45 21 38 54 45
89 18z"/>
<path d="M3560 3708 c-19 -13 -48 -45 -65 -72 -29 -47 -30 -54 -30 -161 0
-107 1 -114 30 -161 68 -110 164 -125 247 -37 100 105 83 343 -29 427 -41 31
-111 33 -153 4z m55 -92 c18 -27 11 -52 -17 -67 -45 -24 -95 54 -50 80 28 17
51 13 67 -13z"/>
<path d="M2870 3180 c-11 -11 -20 -31 -20 -45 0 -14 9 -34 20 -45 11 -11 31
-20 45 -20 14 0 34 9 45 20 11 11 20 31 20 45 0 14 -9 34 -20 45 -11 11 -31
20 -45 20 -14 0 -34 -9 -45 -20z"/>
<path d="M2763 2974 c-7 -20 24 -62 68 -92 29 -20 43 -23 98 -20 60 4 66 7
102 46 40 42 51 82 24 82 -8 0 -21 -13 -29 -29 -21 -40 -63 -64 -111 -64 -48
0 -90 24 -111 64 -16 32 -32 37 -41 13z"/>
</g>
</svg>
